<svg width="100" height="100" viewBox="0 0 100 100" fill="none" xmlns="http://www.w3.org/2000/svg">
<path d="M50 0C51.4208 0 52.7834 0.564412 53.7881 1.56907C54.7927 2.57373 55.3571 3.93634 55.3571 5.35714V16.0714C55.3571 17.4922 54.7927 18.8548 53.7881 19.8595C52.7834 20.8642 51.4208 21.4286 50 21.4286C48.5792 21.4286 47.2166 20.8642 46.2119 19.8595C45.2073 18.8548 44.6429 17.4922 44.6429 16.0714V5.35714C44.6429 3.93634 45.2073 2.57373 46.2119 1.56907C47.2166 0.564412 48.5792 0 50 0ZM67.8571 50C67.8571 54.736 65.9758 59.278 62.6269 62.6269C59.278 65.9758 54.736 67.8571 50 67.8571C45.264 67.8571 40.722 65.9758 37.3731 62.6269C34.0242 59.278 32.1429 54.736 32.1429 50C32.1429 45.264 34.0242 40.722 37.3731 37.3731C40.722 34.0242 45.264 32.1429 50 32.1429C54.736 32.1429 59.278 34.0242 62.6269 37.3731C65.9758 40.722 67.8571 45.264 67.8571 50ZM85.3571 22.2143C85.8835 21.7238 86.3056 21.1324 86.5984 20.4753C86.8912 19.8181 87.0487 19.1088 87.0614 18.3894C87.0741 17.6701 86.9417 16.9556 86.6723 16.2886C86.4029 15.6215 86.0018 15.0156 85.4931 14.5069C84.9844 13.9982 84.3785 13.5971 83.7114 13.3277C83.0444 13.0583 82.3299 12.9259 81.6105 12.9386C80.8912 12.9513 80.1819 13.1088 79.5247 13.4016C78.8676 13.6944 78.2762 14.1165 77.7857 14.6429L70.2 22.2143C69.7019 22.7119 69.3067 23.3028 69.037 23.9531C68.7672 24.6034 68.6282 25.3006 68.6279 26.0046C68.6272 27.4265 69.1915 28.7905 70.1964 29.7964C71.2014 30.8024 72.5648 31.3679 73.9868 31.3685C75.4087 31.3692 76.7726 30.805 77.7786 29.8L85.3571 22.2143ZM100 50C100 51.4208 99.4356 52.7834 98.4309 53.7881C97.4263 54.7927 96.0637 55.3571 94.6429 55.3571H83.9286C82.5078 55.3571 81.1452 54.7927 80.1405 53.7881C79.1358 52.7834 78.5714 51.4208 78.5714 50C78.5714 48.5792 79.1358 47.2166 80.1405 46.2119C81.1452 45.2073 82.5078 44.6429 83.9286 44.6429H94.6429C96.0637 44.6429 97.4263 45.2073 98.4309 46.2119C99.4356 47.2166 100 48.5792 100 50ZM77.7857 85.3571C78.8012 86.3034 80.1444 86.8186 81.5323 86.7941C82.9202 86.7696 84.2443 86.2074 85.2259 85.2259C86.2074 84.2443 86.7696 82.9202 86.7941 81.5323C86.8186 80.1444 86.3034 78.8012 85.3571 77.7857L77.7857 70.2C77.2881 69.7019 76.6973 69.3067 76.0469 69.037C75.3966 68.7672 74.6995 68.6282 73.9954 68.6279C73.2913 68.6276 72.5941 68.7659 71.9435 69.035C71.2929 69.3042 70.7017 69.6988 70.2036 70.1964C69.7055 70.6941 69.3103 71.2849 69.0406 71.9352C68.7708 72.5856 68.6318 73.2827 68.6315 73.9868C68.6308 75.4087 69.195 76.7726 70.2 77.7786L77.7857 85.3571ZM50 78.5714C51.4208 78.5714 52.7834 79.1358 53.7881 80.1405C54.7927 81.1452 55.3571 82.5078 55.3571 83.9286V94.6429C55.3571 96.0637 54.7927 97.4263 53.7881 98.4309C52.7834 99.4356 51.4208 100 50 100C48.5792 100 47.2166 99.4356 46.2119 98.4309C45.2073 97.4263 44.6429 96.0637 44.6429 94.6429V83.9286C44.6429 82.5078 45.2073 81.1452 46.2119 80.1405C47.2166 79.1358 48.5792 78.5714 50 78.5714ZM29.8 77.7857C30.2981 77.2881 30.6933 76.6973 30.963 76.0469C31.2328 75.3966 31.3718 74.6995 31.3721 73.9954C31.3724 73.2913 31.2341 72.5941 30.965 71.9435C30.6958 71.2929 30.3012 70.7017 29.8036 70.2036C29.306 69.7055 28.7151 69.3103 28.0648 69.0406C27.4144 68.7708 26.7173 68.6318 26.0132 68.6315C25.3092 68.6311 24.6119 68.7695 23.9613 69.0386C23.3107 69.3077 22.7195 69.7024 22.2214 70.2L14.6429 77.7857C14.1165 78.2762 13.6944 78.8676 13.4016 79.5247C13.1088 80.1819 12.9513 80.8912 12.9386 81.6105C12.9259 82.3299 13.0583 83.0444 13.3277 83.7114C13.5971 84.3785 13.9982 84.9844 14.5069 85.4931C15.0156 86.0018 15.6215 86.4029 16.2886 86.6723C16.9556 86.9417 17.6701 87.0741 18.3894 87.0614C19.1088 87.0487 19.8181 86.8912 20.4753 86.5984C21.1324 86.3056 21.7238 85.8835 22.2143 85.3571L29.8 77.7857ZM21.4286 50C21.4286 51.4208 20.8642 52.7834 19.8595 53.7881C18.8548 54.7927 17.4922 55.3571 16.0714 55.3571H5.35714C3.93634 55.3571 2.57373 54.7927 1.56907 53.7881C0.564412 52.7834 0 51.4208 0 50C0 48.5792 0.564412 47.2166 1.56907 46.2119C2.57373 45.2073 3.93634 44.6429 5.35714 44.6429H16.0714C17.4922 44.6429 18.8548 45.2073 19.8595 46.2119C20.8642 47.2166 21.4286 48.5792 21.4286 50ZM22.2143 29.8C23.2202 30.8069 24.5849 31.3729 26.0082 31.3736C27.4315 31.3742 28.7967 30.8095 29.8036 29.8036C30.8104 28.7976 31.3765 27.4329 31.3771 26.0097C31.3778 24.5864 30.8131 23.2212 29.8071 22.2143L22.2143 14.6429C21.7238 14.1165 21.1324 13.6944 20.4753 13.4016C19.8181 13.1088 19.1088 12.9513 18.3894 12.9386C17.6701 12.9259 16.9556 13.0583 16.2886 13.3277C15.6215 13.5971 15.0156 13.9982 14.5069 14.5069C13.9982 15.0156 13.5971 15.6215 13.3277 16.2886C13.0583 16.9556 12.9259 17.6701 12.9386 18.3894C12.9513 19.1088 13.1088 19.8181 13.4016 20.4753C13.6944 21.1324 14.1165 21.7238 14.6429 22.2143L22.2143 29.8Z" fill="black"/>
</svg>
